<svg xmlns="http://www.w3.org/2000/svg" version="1.1" xmlns:xlink="http://www.w3.org/1999/xlink" xmlns:svgjs="http://svgjs.dev/svgjs" width="128" height="128" viewBox="0 0 128 128"><g transform="matrix(0.8046875,0,0,0.8046875,12.221578125,19.40436312193301)"><svg viewBox="0 0 96 83" data-background-color="#3e373d" preserveAspectRatio="xMidYMid meet" height="110" width="128" xmlns="http://www.w3.org/2000/svg" xmlns:xlink="http://www.w3.org/1999/xlink"><g id="tight-bounds" transform="matrix(1,0,0,1,0.25950000000000273,0.31677371514419406)"><svg viewBox="0 0 95.481 82.36645256971161" height="82.36645256971161" width="95.481"><g><svg viewBox="0 0 95.481 82.36645256971161" height="82.36645256971161" width="95.481"><g><svg viewBox="0 0 95.481 82.36645256971161" height="82.36645256971161" width="95.481"><g id="textblocktransform"><svg viewBox="0 0 95.481 82.36645256971161" height="82.36645256971161" width="95.481" id="textblock"><g><svg viewBox="0 0 95.481 82.36645256971161" height="82.36645256971161" width="95.481"><g><svg viewBox="0 0 95.481 82.36645256971161" height="82.36645256971161" width="95.481"><g><svg xmlns="http://www.w3.org/2000/svg" xmlns:xlink="http://www.w3.org/1999/xlink" version="1.1" x="0" y="0" viewBox="0.507 7.136 98.51299999999999 84.982" enable-background="new 0 0 100 100" xml:space="preserve" height="82.36645256971161" width="95.481" class="icon-icon-0" data-fill-palette-color="accent" id="icon-0"><g fill="#c9a181" data-fill-palette-color="accent"><path d="M22.048 42.728L25.829 47.455 38.642 65.239A0.42 0.42 0 0 0 38.849 65.402L23.004 90.852 15.187 44.39zM0.507 55.422A0.9 0.9 0 0 1 0.708 54.928L12.118 40.129A0.635 0.635 0 0 1 12.785 39.889L21.121 41.797C21.362 41.887 21.356 41.907 21.425 41.978L14.778 43.589C14.538 43.65 14.484 43.67 14.343 43.778zM19.537 87.812L15.759 82.927A0.4 0.4 0 0 1 15.694 82.816L18.169 81.769zM21.713 88.462C21.429 88.598 21.039 88.784 20.647 88.749L18.907 81.064C18.842 80.779 18.578 80.646 18.309 80.757L15.982 81.742C16.602 80.805 17.908 79.713 18.311 79.263L13.357 50.91 1.485 55.936A1.1 1.1 0 0 1 1.16 56.018L14.382 44.89zM37.129 61.631L46.048 53.846 39.311 64.665zM39.486 86.967L23.765 92.118C30.733 86.326 39.638 78.907 47.736 72.148zM98.23 86.475L40.604 86.768 49.525 70.742zM99.02 85.784L50.25 70.055A46403 46403 0 0 0 69.246 54.201zM49.038 69.889A0.4 0.4 0 0 0 48.934 70.001 13656 13656 0 0 1 24.16 90.65L46.208 55.246zM60.498 60.363L49.812 69.277 47.014 54.795zM55.514 57.355L47.55 54.066 56.358 55.515zM79.921 8.222C79.813 9.295 74.361 58.34 74.361 58.34L69.605 53.3A0.464 0.464 0 0 0 69.001 53.262L61.246 59.737C61.207 59.702 56.319 57.694 56.319 57.694L63.139 42.826C63.143 42.824 79.249 9.773 79.921 8.222M32.224 7.136C32.33 7.194 32.434 7.285 32.531 7.413L60.976 45.447 56.734 54.694 45.979 52.923A0.9 0.9 0 0 0 45.62 53.027L43.274 55.084zM26.009 46.159L31.351 7.717C31.364 7.633 31.381 7.557 31.407 7.489L42.525 55.736 36.616 60.917z" fill="#c9a181" data-fill-palette-color="accent"></path></g></svg></g></svg></g></svg></g></svg></g></svg></g></svg></g><defs></defs></svg><rect width="95.481" height="82.36645256971161" fill="none" stroke="none" visibility="hidden"></rect></g></svg></g></svg>