<svg xmlns="http://www.w3.org/2000/svg" version="1.1" xmlns:xlink="http://www.w3.org/1999/xlink" xmlns:svgjs="http://svgjs.dev/svgjs" width="128" height="128" viewBox="0 0 128 128"><g transform="matrix(0.8046875,0,0,0.8046875,12.760752631578946,19.93997273317609)"><svg viewBox="0 0 95 82" data-background-color="#3e373d" preserveAspectRatio="xMidYMid meet" height="110" width="128" xmlns="http://www.w3.org/2000/svg" xmlns:xlink="http://www.w3.org/1999/xlink"><g id="tight-bounds" transform="matrix(1,0,0,1,-0.24049999999999727,-0.18322628485580594)"><svg viewBox="0 0 95.481 82.36645256971161" height="82.36645256971161" width="95.481"><g><svg viewBox="0 0 95.481 82.36645256971161" height="82.36645256971161" width="95.481"><g><svg viewBox="0 0 95.481 82.36645256971161" height="82.36645256971161" width="95.481"><g id="textblocktransform"><svg viewBox="0 0 95.481 82.36645256971161" height="82.36645256971161" width="95.481" id="textblock"><g><svg viewBox="0 0 95.481 82.36645256971161" height="82.36645256971161" width="95.481"><g><svg viewBox="0 0 95.481 82.36645256971161" height="82.36645256971161" width="95.481"><g><svg xmlns="http://www.w3.org/2000/svg" xmlns:xlink="http://www.w3.org/1999/xlink" version="1.1" x="0" y="0" viewBox="0.507 7.136 98.51299999999999 84.982" enable-background="new 0 0 100 100" xml:space="preserve" height="82.36645256971161" width="95.481" class="icon-icon-0" data-fill-palette-color="accent" id="icon-0"><g fill="#c9a181" data-fill-palette-color="accent"><path d="M22.048 42.728l3.781 4.727 12.813 17.784c0.061 0.085 0.131 0.137 0.207 0.163L23.004 90.852 15.187 44.39 22.048 42.728 22.048 42.728zM0.507 55.422c0.008-0.154 0.071-0.324 0.201-0.494l11.41-14.799c0.103-0.132 0.334-0.325 0.667-0.24l8.336 1.908c0.241 0.09 0.235 0.11 0.304 0.181l-6.647 1.611c-0.24 0.061-0.294 0.081-0.435 0.189L0.507 55.422 0.507 55.422zM19.537 87.812l-3.778-4.885c-0.027-0.031-0.048-0.07-0.065-0.111l2.475-1.047L19.537 87.812 19.537 87.812zM21.713 88.462c-0.284 0.136-0.674 0.322-1.066 0.287l-1.74-7.685c-0.065-0.285-0.329-0.418-0.598-0.307l-2.327 0.985c0.62-0.937 1.926-2.029 2.329-2.479L13.357 50.91 1.485 55.936c-0.115 0.047-0.224 0.073-0.325 0.082L14.382 44.89 21.713 88.462 21.713 88.462zM37.129 61.631l8.919-7.785-6.737 10.819L37.129 61.631 37.129 61.631zM39.486 86.967l-15.721 5.151c6.968-5.792 15.873-13.211 23.971-19.97L39.486 86.967 39.486 86.967zM98.23 86.475l-57.626 0.293 8.921-16.026L98.23 86.475 98.23 86.475zM99.02 85.784L50.25 70.055c9.45-7.883 17.344-14.474 18.996-15.854L99.02 85.784 99.02 85.784zM49.038 69.889c-0.044 0.032-0.08 0.07-0.104 0.112C40.737 76.85 31.492 84.555 24.16 90.65l22.048-35.404L49.038 69.889 49.038 69.889zM60.498 60.363l-10.686 8.914-2.798-14.482L60.498 60.363 60.498 60.363zM55.514 57.355l-7.964-3.289 8.808 1.449L55.514 57.355 55.514 57.355zM79.921 8.222c-0.108 1.073-5.56 50.118-5.56 50.118l-4.756-5.04c-0.146-0.159-0.437-0.178-0.604-0.038l-7.755 6.475c-0.039-0.035-4.927-2.043-4.927-2.043l6.82-14.868C63.143 42.824 79.249 9.773 79.921 8.222L79.921 8.222zM32.224 7.136c0.106 0.058 0.21 0.149 0.307 0.277l28.445 38.034-4.242 9.247-10.755-1.771c-0.06-0.01-0.313 0.062-0.359 0.104l-2.346 2.057L32.224 7.136 32.224 7.136zM26.009 46.159l5.342-38.442c0.013-0.084 0.03-0.16 0.056-0.228l11.118 48.247-5.909 5.181L26.009 46.159 26.009 46.159z" fill="#ffffff" data-fill-palette-color="accent"></path></g></svg></g></svg></g></svg></g></svg></g></svg></g></svg></g><defs></defs></svg><rect width="95.481" height="82.36645256971161" fill="none" stroke="none" visibility="hidden"></rect></g></svg></g></svg>