<svg xmlns="http://www.w3.org/2000/svg" version="1.1" xmlns:xlink="http://www.w3.org/1999/xlink" xmlns:svgjs="http://svgjs.dev/svgjs" width="2000" height="494" viewBox="0 0 2000 494"><g transform="matrix(1,0,0,1,-1.2121212121213603,-0.8753692474284946)"><svg viewBox="0 0 396 98" data-background-color="#3e373d" preserveAspectRatio="xMidYMid meet" height="494" width="2000" xmlns="http://www.w3.org/2000/svg" xmlns:xlink="http://www.w3.org/1999/xlink"><g id="tight-bounds" transform="matrix(1,0,0,1,0.24000000000003752,0.17365624746557273)"><svg viewBox="0 0 395.5199999999999 97.65265555974699" height="97.65265555974699" width="395.5199999999999"><g><svg viewBox="0 0 560.8412405153434 138.46995470202785" height="97.65265555974699" width="395.5199999999999"><g transform="matrix(1,0,0,1,165.32124051534342,40.79997568490263)"><svg viewBox="0 0 395.52 56.870003332222595" height="56.870003332222595" width="395.52"><g id="textblocktransform"><svg viewBox="0 0 395.52 56.870003332222595" height="56.870003332222595" width="395.52" id="textblock"><g><svg viewBox="0 0 395.52 56.870003332222595" height="56.870003332222595" width="395.52"><g transform="matrix(1,0,0,1,0,0)"><svg width="395.52" viewBox="4.5 -42.3 300.08 43.15" height="56.870003332222595" data-palette-color="#ddd8c3"><path d="M35.6-28.25Q40.65-28.25 43.08-25.55 45.5-22.85 45.5-16.65L45.5-16.65 45.5 0 40.8 0 40.8-16.65Q40.8-20.6 39.53-22.23 38.25-23.85 34.95-23.85L34.95-23.85Q31.05-23.85 27.15-20.1L27.15-20.1Q27.35-18.7 27.35-16.65L27.35-16.65 27.35 0 22.65 0 22.65-16.65Q22.65-20.6 21.38-22.23 20.1-23.85 16.8-23.85L16.8-23.85Q13-23.85 9.2-20.45L9.2-20.45 9.2 0 4.5 0 4.5-27.65 9.2-27.65 9.2-24.7Q13.25-28.25 17.45-28.25L17.45-28.25Q20.8-28.25 22.95-27.13 25.1-26 26.2-23.55L26.2-23.55Q30.75-28.25 35.6-28.25L35.6-28.25ZM61.9-27.65Q66.3-27.65 68.6-26.18 70.9-24.7 71.65-22.23 72.4-19.75 72.4-16L72.4-16 72.4 0 67.7 0 67.7-2.75Q65.8-0.95 63.9-0.15 62 0.65 59.8 0.65L59.8 0.65Q57.2 0.65 55.1-0.48 53-1.6 51.77-3.73 50.55-5.85 50.55-8.75L50.55-8.75Q50.55-13.25 53.35-15.73 56.15-18.2 60.9-18.2L60.9-18.2Q64.65-18.2 67.65-16.55L67.65-16.55Q67.6-19 67.15-20.45 66.7-21.9 65.3-22.68 63.9-23.45 61.15-23.45L61.15-23.45 57.45-23.45 57.45-27.65 61.9-27.65ZM60.45-3.4Q62.15-3.4 64.02-4.2 65.9-5 67.7-6.6L67.7-6.6 67.7-12.9Q64.9-14.3 61.6-14.3L61.6-14.3Q58.95-14.3 57.15-13.03 55.35-11.75 55.35-8.75L55.35-8.75Q55.35-5.95 56.87-4.67 58.4-3.4 60.45-3.4L60.45-3.4ZM93.2-28.25L94.35-28.25 94.35-23.85 93.2-23.85Q88.9-23.85 84.85-20.4L84.85-20.4 84.85 0 80.15 0 80.15-27.65 84.85-27.65 84.85-24.55Q88.95-28.25 93.2-28.25L93.2-28.25ZM118.14 0L108.04-12.75 105.04-9.7 105.04 0 100.34 0 100.34-42.3 105.04-42.3 105.04-15.65 116.34-27.3 122.24-27.3 111.24-16 123.84 0 118.14 0ZM132.74-13.45Q132.84-8.85 135.04-6.1 137.24-3.35 142.04-3.35L142.04-3.35Q145.69-3.35 150.04-5.4L150.04-5.4 151.49-1.5Q146.94 0.85 141.64 0.85L141.64 0.85Q137.24 0.85 134.14-1 131.04-2.85 129.44-6.15 127.84-9.45 127.84-13.85L127.84-13.85Q127.84-18.5 129.52-21.78 131.19-25.05 134.04-26.75 136.89-28.45 140.44-28.45L140.44-28.45Q145.89-28.45 148.99-25.05 152.09-21.65 152.09-15.3L152.09-15.3 152.09-13.45 132.74-13.45ZM140.44-24.25Q134.24-24.25 133.04-17.4L133.04-17.4 147.14-17.4Q146.89-20.9 145.24-22.58 143.59-24.25 140.44-24.25L140.44-24.25ZM170.84-22.95L164.44-22.95 164.44-7.15Q164.44-5.15 165.06-4.42 165.69-3.7 167.39-3.7L167.39-3.7Q168.89-3.7 170.59-4.1L170.59-4.1 170.59 0.15Q168.34 0.65 166.59 0.65L166.59 0.65Q162.79 0.65 161.26-0.9 159.74-2.45 159.74-6.1L159.74-6.1 159.74-22.95 156.14-22.95 156.14-27.3 159.74-27.3 159.74-36.8 164.44-36.8 164.44-27.3 170.84-27.3 170.84-22.95ZM185.84 0.85Q182.79 0.85 180.44 0.35 178.09-0.15 175.54-1.35L175.54-1.35 175.54-6Q180.29-3.35 185.84-3.35L185.84-3.35Q188.64-3.35 189.86-4.48 191.09-5.6 191.09-7.45L191.09-7.45Q191.09-9.25 190.11-10.1 189.14-10.95 186.94-11.55L186.94-11.55 183.69-12.35Q180.19-13.2 178.19-15.05 176.19-16.9 176.19-20.5L176.19-20.5Q176.19-24.25 178.64-26.35 181.09-28.45 185.84-28.45L185.84-28.45Q188.29-28.45 190.39-27.98 192.49-27.5 194.59-26.65L194.59-26.65 194.59-22.25Q192.54-23.2 190.54-23.73 188.54-24.25 185.99-24.25L185.99-24.25Q183.34-24.25 182.16-23.23 180.99-22.2 180.99-20.65L180.99-20.65Q180.99-18.95 182.01-18.07 183.04-17.2 184.99-16.7L184.99-16.7 188.29-15.95Q190.79-15.35 192.41-14.45 194.04-13.55 194.96-11.93 195.89-10.3 195.89-7.6L195.89-7.6Q195.89-3.55 193.16-1.35 190.44 0.85 185.84 0.85L185.84 0.85ZM216.28-28.25Q221.38-28.25 223.86-25.55 226.33-22.85 226.33-16.65L226.33-16.65 226.33 0 221.63 0 221.63-16.65Q221.63-20.55 220.31-22.2 218.98-23.85 215.63-23.85L215.63-23.85Q211.73-23.85 207.83-20.45L207.83-20.45 207.83 0 203.13 0 203.13-42.3 207.83-42.3 207.83-24.7Q211.88-28.25 216.28-28.25L216.28-28.25ZM243.58-27.65Q247.98-27.65 250.28-26.18 252.58-24.7 253.33-22.23 254.08-19.75 254.08-16L254.08-16 254.08 0 249.38 0 249.38-2.75Q247.48-0.95 245.58-0.15 243.68 0.65 241.48 0.65L241.48 0.65Q238.88 0.65 236.78-0.48 234.68-1.6 233.46-3.73 232.23-5.85 232.23-8.75L232.23-8.75Q232.23-13.25 235.03-15.73 237.83-18.2 242.58-18.2L242.58-18.2Q246.33-18.2 249.33-16.55L249.33-16.55Q249.28-19 248.83-20.45 248.38-21.9 246.98-22.68 245.58-23.45 242.83-23.45L242.83-23.45 239.13-23.45 239.13-27.65 243.58-27.65ZM242.13-3.4Q243.83-3.4 245.71-4.2 247.58-5 249.38-6.6L249.38-6.6 249.38-12.9Q246.58-14.3 243.28-14.3L243.28-14.3Q240.63-14.3 238.83-13.03 237.03-11.75 237.03-8.75L237.03-8.75Q237.03-5.95 238.56-4.67 240.08-3.4 242.13-3.4L242.13-3.4ZM274.88-28.25L276.03-28.25 276.03-23.85 274.88-23.85Q270.58-23.85 266.53-20.4L266.53-20.4 266.53 0 261.83 0 261.83-27.65 266.53-27.65 266.53-24.55Q270.63-28.25 274.88-28.25L274.88-28.25ZM285.23-13.45Q285.33-8.85 287.53-6.1 289.73-3.35 294.53-3.35L294.53-3.35Q298.18-3.35 302.53-5.4L302.53-5.4 303.98-1.5Q299.43 0.85 294.13 0.85L294.13 0.85Q289.73 0.85 286.63-1 283.53-2.85 281.93-6.15 280.33-9.45 280.33-13.85L280.33-13.85Q280.33-18.5 282-21.78 283.68-25.05 286.53-26.75 289.38-28.45 292.93-28.45L292.93-28.45Q298.38-28.45 301.48-25.05 304.58-21.65 304.58-15.3L304.58-15.3 304.58-13.45 285.23-13.45ZM292.93-24.25Q286.73-24.25 285.53-17.4L285.53-17.4 299.63-17.4Q299.38-20.9 297.73-22.58 296.08-24.25 292.93-24.25L292.93-24.25Z" opacity="1" transform="matrix(1,0,0,1,0,0)" fill="#ffffff" class="wordmark-text-0" data-fill-palette-color="primary" id="text-0"></path></svg></g></svg></g></svg></g></svg></g><g><svg viewBox="0 0 138.46995470202785 138.46995470202785" height="138.46995470202785" width="138.46995470202785"><g><svg></svg></g><g id="icon-0"><svg viewBox="0 0 138.46995470202785 138.46995470202785" height="138.46995470202785" width="138.46995470202785"><g><path d="M0 69.235c0-38.237 30.998-69.235 69.235-69.235 38.237 0 69.235 30.998 69.235 69.235 0 38.237-30.998 69.235-69.235 69.235-38.237 0-69.235-30.998-69.235-69.235zM69.235 133.341c35.405 0 64.106-28.701 64.106-64.106 0-35.405-28.701-64.106-64.106-64.106-35.405 0-64.106 28.701-64.106 64.106 0 35.405 28.701 64.106 64.106 64.106z" data-fill-palette-color="accent" fill="#ffffff" stroke="transparent"></path></g><g transform="matrix(1,0,0,1,29.168823389513292,34.672007022668964)"><svg viewBox="0 0 80.13230792300126 69.12594065668992" height="69.12594065668992" width="80.13230792300126"><g><svg xmlns="http://www.w3.org/2000/svg" xmlns:xlink="http://www.w3.org/1999/xlink" version="1.1" x="0" y="0" viewBox="0.507 7.136 98.51299999999999 84.982" enable-background="new 0 0 100 100" xml:space="preserve" height="69.12594065668992" width="80.13230792300126" class="icon-cg-0" data-fill-palette-color="accent" id="cg-0"><g fill="#c9a181" data-fill-palette-color="accent"><path d="M22.048 42.728l3.781 4.727 12.813 17.784c0.061 0.085 0.131 0.137 0.207 0.163L23.004 90.852 15.187 44.39 22.048 42.728 22.048 42.728zM0.507 55.422c0.008-0.154 0.071-0.324 0.201-0.494l11.41-14.799c0.103-0.132 0.334-0.325 0.667-0.24l8.336 1.908c0.241 0.09 0.235 0.11 0.304 0.181l-6.647 1.611c-0.24 0.061-0.294 0.081-0.435 0.189L0.507 55.422 0.507 55.422zM19.537 87.812l-3.778-4.885c-0.027-0.031-0.048-0.07-0.065-0.111l2.475-1.047L19.537 87.812 19.537 87.812zM21.713 88.462c-0.284 0.136-0.674 0.322-1.066 0.287l-1.74-7.685c-0.065-0.285-0.329-0.418-0.598-0.307l-2.327 0.985c0.62-0.937 1.926-2.029 2.329-2.479L13.357 50.91 1.485 55.936c-0.115 0.047-0.224 0.073-0.325 0.082L14.382 44.89 21.713 88.462 21.713 88.462zM37.129 61.631l8.919-7.785-6.737 10.819L37.129 61.631 37.129 61.631zM39.486 86.967l-15.721 5.151c6.968-5.792 15.873-13.211 23.971-19.97L39.486 86.967 39.486 86.967zM98.23 86.475l-57.626 0.293 8.921-16.026L98.23 86.475 98.23 86.475zM99.02 85.784L50.25 70.055c9.45-7.883 17.344-14.474 18.996-15.854L99.02 85.784 99.02 85.784zM49.038 69.889c-0.044 0.032-0.08 0.07-0.104 0.112C40.737 76.85 31.492 84.555 24.16 90.65l22.048-35.404L49.038 69.889 49.038 69.889zM60.498 60.363l-10.686 8.914-2.798-14.482L60.498 60.363 60.498 60.363zM55.514 57.355l-7.964-3.289 8.808 1.449L55.514 57.355 55.514 57.355zM79.921 8.222c-0.108 1.073-5.56 50.118-5.56 50.118l-4.756-5.04c-0.146-0.159-0.437-0.178-0.604-0.038l-7.755 6.475c-0.039-0.035-4.927-2.043-4.927-2.043l6.82-14.868C63.143 42.824 79.249 9.773 79.921 8.222L79.921 8.222zM32.224 7.136c0.106 0.058 0.21 0.149 0.307 0.277l28.445 38.034-4.242 9.247-10.755-1.771c-0.06-0.01-0.313 0.062-0.359 0.104l-2.346 2.057L32.224 7.136 32.224 7.136zM26.009 46.159l5.342-38.442c0.013-0.084 0.03-0.16 0.056-0.228l11.118 48.247-5.909 5.181L26.009 46.159 26.009 46.159z" fill="#ffffff" data-fill-palette-color="accent"></path></g></svg></g></svg></g></svg></g></svg></g></svg></g><defs></defs></svg><rect width="395.5199999999999" height="97.65265555974699" fill="none" stroke="none" visibility="hidden"></rect></g></svg></g></svg>